# xmcd CD database file
#
# Track frame offsets:
#	150
#	30228
#	51110
#	76583
#	98695
#	125433
#	156160
#	167785
#	181373
#	208003
#	244068
#	278248
#
# Disc length: 4137 seconds
#
# Revision: 0
# Processed by: cddbd v1.4PL0 Copyright (c) Steve Scherf et al.
# Submitted via: CDex 1.50beta9
#
DISCID=9310270c
DTITLE=Duke Ellington and Johnny Hodges - Side By Side
DYEAR=1959
DGENRE=Blues
TTITLE0=Stompy Jones (Duke Ellington)
TTITLE1=Squeeze Me (Clarence Wiliams - Fats Waller)
TTITLE2=Big Shoe (Jimmy Hamilton)
TTITLE3=Going Up (Duke Ellington)
TTITLE4=Just A Memory (R. Henderson - B. DeSylva - L. Brown)
TTITLE5=Let's Fall In Love (Harold Arlen - Ted Koehler)
TTITLE6=Ruint (Duke Ellington - Johnny Hodges)
TTITLE7=Bend One (Johnny Hodges)
TTITLE8=You Need To Rock (Johnny Hodges)
TTITLE9=Basin Street Blues (Williams)
TTITLE10=Beale Street Blues (Handy)
TTITLE11=Loveless Love (Handy)
EXTD=YEAR: 1959
EXTT0=
EXTT1=
EXTT2=
EXTT3=
EXTT4=
EXTT5=
EXTT6=
EXTT7=
EXTT8=
EXTT9=
EXTT10=
EXTT11=
PLAYORDER=
